<svg xmlns="http://www.w3.org/2000/svg" version="1.1" xmlns:xlink="http://www.w3.org/1999/xlink" xmlns:svgjs="http://svgjs.dev/svgjs" width="555px" height="555px"><svg width="555px" height="555px" viewBox="0 0 555 555" version="1.1" xmlns="http://www.w3.org/2000/svg" xmlns:xlink="http://www.w3.org/1999/xlink">
    <title>Oval 2</title>
    <defs>
        <linearGradient x1="50%" y1="0%" x2="50%" y2="100%" id="SvgjsLinearGradient1009">
            <stop stop-color="#CF3C75" offset="0%"></stop>
            <stop stop-color="#6DF076" offset="100%"></stop>
        </linearGradient>
    </defs>
    <g id="SvgjsG1008" stroke="none" stroke-width="1" fill="none" fill-rule="evenodd">
        <path d="M275.468205,524.145628 C200.305476,522.926979 139.750287,461.617259 139.750287,386.164116 C139.750287,309.948821 202.284987,271.856532 278.500282,271.856532 C354.715578,271.856532 415.750287,309.948821 415.750287,386.164116 C415.750287,462.379412 353.965582,524.164116 277.750287,524.164116 C315.857935,524.164116 346.750287,493.271764 346.750287,455.164116 C346.750287,417.056469 315.010279,379.690527 276.902632,379.690527 C238.794984,379.690527 208.750287,417.056469 208.750287,455.164116 C208.750287,492.890688 239.027881,523.545548 276.609246,524.154872 Z M335.025699,2.02319012 C487.45629,2.02319012 553.750287,95.7335254 553.750287,248.164116 C553.750287,400.594707 430.180878,524.164116 277.750287,524.164116 C277.667459,524.164116 277.584639,524.16408 277.501828,524.164007 L277.250287,524.164116 C390.192518,524.164116 481.750287,432.606348 481.750287,319.664116 C481.750287,206.721885 387.290613,130.077784 274.348381,130.077784 C161.40615,130.077784 72.7502869,206.721885 72.7502869,319.664116 C72.7502869,431.384734 162.338141,522.180988 273.593041,524.132071 C123.079485,521.911265 1.75028689,399.206667 1.75028689,248.164116 C1.75028689,95.7335254 182.595108,2.02319012 335.025699,2.02319012 Z" id="SvgjsPath1007" fill="url(#linearGradient-1)" transform="translate(277.7503, 263.0937) rotate(-210) translate(-277.7503, -263.0937)"></path>
    </g>
</svg><style>@media (prefers-color-scheme: light) { :root { filter: none; } }
@media (prefers-color-scheme: dark) { :root { filter: none; } }
</style></svg>